<?xml version="1.0" encoding="UTF-8" standalone="no"?>
<svg
   xmlns:dc="http://purl.org/dc/elements/1.1/"
   xmlns:cc="http://creativecommons.org/ns#"
   xmlns:rdf="http://www.w3.org/1999/02/22-rdf-syntax-ns#"
   xmlns:svg="http://www.w3.org/2000/svg"
   xmlns="http://www.w3.org/2000/svg"
   xmlns:sodipodi="http://sodipodi.sourceforge.net/DTD/sodipodi-0.dtd"
   xmlns:inkscape="http://www.inkscape.org/namespaces/inkscape"
   width="481"
   height="408"
   overflow="hidden"
   version="1.1"
   id="svg4580"
   sodipodi:docname="test4.svg"
   inkscape:version="0.92.1 r15371">
  <metadata
     id="metadata4584">
    <rdf:RDF>
      <cc:Work
         rdf:about="">
        <dc:format>image/svg+xml</dc:format>
        <dc:type
           rdf:resource="http://purl.org/dc/dcmitype/StillImage" />
      </cc:Work>
    </rdf:RDF>
  </metadata>
  <sodipodi:namedview
     pagecolor="#ffffff"
     bordercolor="#666666"
     borderopacity="1"
     objecttolerance="10"
     gridtolerance="10"
     guidetolerance="10"
     inkscape:pageopacity="0"
     inkscape:pageshadow="2"
     inkscape:window-width="1920"
     inkscape:window-height="1017"
     id="namedview4582"
     showgrid="false"
     inkscape:zoom="1.4696729"
     inkscape:cx="305.01998"
     inkscape:cy="257.80959"
     inkscape:window-x="1912"
     inkscape:window-y="-8"
     inkscape:window-maximized="1"
     inkscape:current-layer="g4578" />
  <defs
     id="defs4488">
    <clipPath
       id="clip0">
      <rect
         x="165"
         y="53"
         width="481"
         height="408"
         id="rect4485" />
    </clipPath>
  </defs>
  <g
     clip-path="url(#clip0)"
     transform="translate(-165,-53)"
     id="g4578">
    <path
       d="m 346,160 c 0,-32 29.818,-64 59.636,-64"
       stroke-miterlimit="8"
       id="path4490"
       inkscape:connector-curvature="0"
       style="fill:none;fill-rule:evenodd;stroke:#2b2a7f;stroke-width:4;stroke-miterlimit:8" />
    <path
       d="m 286.5,174.834 c 0,-7.917 6.417,-14.334 14.334,-14.334 h 90.332 c 7.917,0 14.334,6.417 14.334,14.334 v 57.332 c 0,7.917 -6.417,14.334 -14.334,14.334 h -90.332 c -7.917,0 -14.334,-6.417 -14.334,-14.334 z"
       stroke-miterlimit="8"
       id="path4492"
       inkscape:connector-curvature="0"
       style="fill:#2b2a7f;fill-rule:evenodd;stroke:#2b2a7f;stroke-width:1.33333004;stroke-miterlimit:8" />
    <text
       font-weight="400"
       font-size="14"
       transform="translate(302.863,200)"
       id="text4496"
       style="font-weight:400;font-size:14px;font-family:Arial, Arial_MSFontService, sans-serif;fill:#ffffff">Delivering the <tspan
   x="17.58"
   y="16"
   id="tspan4494">analysis</tspan>
</text>
    <path
       d="m 405.5,68.667 c 0,-7.8242 6.343,-14.1669 14.167,-14.1669 h 91.666 c 7.824,0 14.167,6.3427 14.167,14.1669 v 56.666 c 0,7.824 -6.343,14.167 -14.167,14.167 h -91.666 c -7.824,0 -14.167,-6.343 -14.167,-14.167 z"
       stroke-miterlimit="8"
       id="path4498"
       style="fill:#2b2a7f;fill-opacity:1;fill-rule:evenodd;stroke:#2b2a7f;stroke-width:1.33333004;stroke-miterlimit:8"
       inkscape:connector-curvature="0" />
    <text
       font-weight="400"
       font-size="14"
       transform="translate(428.052,94)"
       id="text4502"
       style="font-weight:400;font-size:14px;font-family:Arial, Arial_MSFontService, sans-serif;fill:#ffffff">Scoping the <tspan
   x="11.6667"
   y="16"
   id="tspan4500">analysis</tspan>
</text>
    <path
       d="m 525.5,174.834 c 0,-7.917 6.417,-14.334 14.334,-14.334 h 90.332 c 7.917,0 14.334,6.417 14.334,14.334 v 57.332 c 0,7.917 -6.417,14.334 -14.334,14.334 h -90.332 c -7.917,0 -14.334,-6.417 -14.334,-14.334 z"
       stroke-miterlimit="8"
       id="path4504"
       inkscape:connector-curvature="0"
       style="fill:#2b2a7f;fill-rule:evenodd;stroke:#2b2a7f;stroke-width:1.33333004;stroke-miterlimit:8" />
    <text
       font-weight="400"
       font-size="14"
       transform="translate(541.616,200)"
       id="text4508"
       style="font-weight:400;font-size:14px;font-family:Arial, Arial_MSFontService, sans-serif;fill:#ffffff">Designing the <tspan
   x="17.58"
   y="16"
   id="tspan4506">analysis</tspan>
</text>
    <path
       d="m 405.5,281.667 c 0,-7.824 6.343,-14.167 14.167,-14.167 h 91.666 c 7.824,0 14.167,6.343 14.167,14.167 v 56.666 c 0,7.824 -6.343,14.167 -14.167,14.167 h -91.666 c -7.824,0 -14.167,-6.343 -14.167,-14.167 z"
       stroke-miterlimit="8"
       id="path4510"
       inkscape:connector-curvature="0"
       style="fill:#2b2a7f;fill-rule:evenodd;stroke:#2b2a7f;stroke-width:1.33333004;stroke-miterlimit:8" />
    <text
       font-weight="400"
       font-size="14"
       transform="translate(429.552,307)"
       id="text4514"
       style="font-weight:400;font-size:14px;font-family:Arial, Arial_MSFontService, sans-serif;fill:#ffffff">Conducting <tspan
   x="-1.5"
   y="16"
   id="tspan4512">the analysis</tspan>
</text>
    <path
       d="m 166.5,281.667 c 0,-7.824 6.343,-14.167 14.167,-14.167 h 91.666 c 7.824,0 14.167,6.343 14.167,14.167 v 56.666 c 0,7.824 -6.343,14.167 -14.167,14.167 h -91.666 c -7.824,0 -14.167,-6.343 -14.167,-14.167 z"
       stroke-miterlimit="8"
       id="path4516"
       inkscape:connector-curvature="0"
       style="fill:#2b2a7f;fill-rule:evenodd;stroke:#2b2a7f;stroke-width:1.33333004;stroke-miterlimit:8" />
    <text
       font-weight="400"
       font-size="14"
       transform="translate(182.647,307)"
       id="text4520"
       style="font-weight:400;font-size:14px;font-family:Arial, Arial_MSFontService, sans-serif;fill:#ffffff">Approving the <tspan
   x="17.9133"
   y="16"
   id="tspan4518">analysis</tspan>
</text>
    <path
       d="m 166.5,388.667 c 0,-7.824 6.343,-14.167 14.167,-14.167 h 91.666 c 7.824,0 14.167,6.343 14.167,14.167 v 56.666 c 0,7.824 -6.343,14.167 -14.167,14.167 h -91.666 c -7.824,0 -14.167,-6.343 -14.167,-14.167 z"
       stroke-miterlimit="8"
       id="path4522"
       inkscape:connector-curvature="0"
       style="fill:#2b2a7f;fill-rule:evenodd;stroke:#2b2a7f;stroke-width:1.33333004;stroke-miterlimit:8" />
    <text
       font-weight="400"
       font-size="14"
       transform="translate(181.814,414)"
       id="text4526"
       style="font-weight:400;font-size:14px;font-family:Arial, Arial_MSFontService, sans-serif;fill:#ffffff">Disseminating <tspan
   x="11.8333"
   y="16"
   id="tspan4524">the results</tspan>
</text>
    <path
       d="m 525.133,94.0044 5.747,0.3832 5.803,1.1085 5.645,1.8167 5.559,2.3915 5.296,2.9707 5.148,3.54 4.823,3.987 4.499,4.434 4.107,4.813 3.723,5.135 3.272,5.453 2.827,5.655 2.261,5.878 1.627,6.119 0.248,2.147 -3.973,0.459 -0.232,-2.003 0.054,0.285 -1.562,-5.875 0.066,0.203 -2.188,-5.687 0.078,0.176 -2.75,-5.5 0.074,0.135 -3.187,-5.313 0.095,0.145 -3.625,-5 0.098,0.125 -4,-4.688 0.118,0.126 -4.375,-4.312 0.129,0.117 -4.687,-3.875 0.141,0.107 -5,-3.438 0.154,0.096 -5.125,-2.875 0.189,0.093 -5.375,-2.312 0.177,0.066 -5.437,-1.7497 0.237,0.0607 -5.562,-1.0625 0.242,0.0311 -5.625,-0.375 z m 64.331,53.3886 -4.589,12.607 -7.333,-11.235 z"
       id="path4528"
       inkscape:connector-curvature="0"
       style="fill:#2b2a7f" />
    <path
       d="m 586.842,246.104 -0.319,6.125 -1.099,6.142 -1.612,6.059 -2.261,5.878 -2.827,5.655 -3.272,5.453 -3.722,5.135 -4.108,4.813 -4.498,4.434 -4.824,3.987 -5.148,3.54 -5.296,2.971 -5.604,2.411 -6.861,1.84 -1.036,-3.864 6.721,-1.802 -0.272,0.094 5.375,-2.312 -0.188,0.093 5.125,-2.875 -0.155,0.096 5,-3.438 -0.141,0.107 4.688,-3.875 -0.13,0.117 4.375,-4.312 -0.117,0.126 4,-4.688 -0.098,0.125 3.625,-5 -0.096,0.145 3.187,-5.313 -0.073,0.135 2.75,-5.5 -0.078,0.176 2.187,-5.687 -0.066,0.203 1.563,-5.875 -0.036,0.162 1.062,-5.937 -0.028,0.248 0.312,-6 z m -49.157,68.176 -12.716,-4.28 11.054,-7.604 z"
       id="path4530"
       inkscape:connector-curvature="0"
       style="fill:#2b2a7f" />
    <path
       d="m 0.133038,-1.99557 5.745002,0.383 5.86256,1.107376 5.7095,1.816654 5.5571,2.39082 5.359,2.97009 5.1523,3.54223 4.8177,3.9826 4.5566,4.4282 4.1754,4.8179 3.727,5.1407 3.2718,5.4529 2.8275,5.655 2.2572,5.8685 1.6923,6.1184 0.2492,2.1572 -3.9735,0.4592 -0.2315,-2.0031 0.0592,0.3036 -1.625,-5.875 0.0609,0.1848 -2.1875,-5.6875 0.0778,0.1764 -2.75,-5.5 0.0739,0.1346 -3.1875,-5.3125 0.0958,0.1449 -3.625,-5 0.1078,0.136 -4.0625,-4.6875 0.1175,0.1244 -4.4375,-4.3125 0.1196,0.1072 -4.6875,-3.875 0.1412,0.1066 -5,-3.4375 0.1636,0.1012 -5.1875,-2.87499 0.1791,0.08787 -5.375,-2.3125 0.184,0.06867 -5.5,-1.75 0.2352,0.0594 -5.62501,-1.0625 0.23817,0.03032 -5.624998,-0.375 z M 64.8384,51.3926 60.25,64 52.9171,52.7649 Z"
       transform="matrix(-1,-8.74228e-8,-8.74228e-8,1,286.246,203)"
       id="path4534"
       inkscape:connector-curvature="0"
       style="fill:#2b2a7f" />
    <path
       d="m 228,352 v 11.333 h -4 V 352 Z m 4,9.333 -6,12 -6,-12 z"
       id="path4536"
       inkscape:connector-curvature="0"
       style="fill:#2b2a7f" />
    <path
       d="m 465,267 c 0,-32 29.922,-64 59.844,-64"
       stroke-miterlimit="8"
       id="path4538"
       inkscape:connector-curvature="0"
       style="fill:none;fill-rule:evenodd;stroke:#2b2a7f;stroke-width:4;stroke-miterlimit:8;stroke-dasharray:16, 12" />
    <path
       d="M 0,0 C 32,0 64,29.9223 64,59.8444"
       stroke-miterlimit="8"
       transform="matrix(-4.37114e-8,1,1,4.37114e-8,465,139)"
       id="path4540"
       inkscape:connector-curvature="0"
       style="fill:none;fill-rule:evenodd;stroke:#2b2a7f;stroke-width:4;stroke-miterlimit:8;stroke-dasharray:16, 12" />
    <path
       d="m 405,203 c 29.818,0 59.636,37.333 59.636,74.667"
       stroke-miterlimit="8"
       id="path4542"
       inkscape:connector-curvature="0"
       style="fill:none;fill-rule:evenodd;stroke:#2b2a7f;stroke-width:4;stroke-miterlimit:8;stroke-dasharray:16, 12" />
    <path
       d="m 0,0 c 21.67044,0 43.340828,16.561203 53.795972,37.769465 3.742391,7.591442 6.047849,15.778293 6.401913,24.014146 m 0,0 c 0.03609,0.748391 0.04096,1.524565 0.04781,2.216389"
       stroke-miterlimit="8"
       transform="matrix(1,0,0,-1,286,310)"
       id="path4544"
       inkscape:connector-curvature="0"
       style="display:inline;fill:none;fill-rule:evenodd;stroke:#2b2a7f;stroke-width:4;stroke-miterlimit:8;stroke-dasharray:16, 12"
       sodipodi:nodetypes="csccc" />
    <rect
       x="468.5"
       y="216.5"
       width="45"
       height="14"
       stroke-miterlimit="8"
       id="rect4546"
       style="fill:#ffffff;stroke:#ffffff;stroke-width:1.33333004;stroke-miterlimit:8" />
    <text
       font-weight="400"
       font-size="14"
       transform="translate(469.718,227)"
       id="text4550"
       style="font-weight:400;font-size:14px;font-family:Arial, Arial_MSFontService, sans-serif">Refin<tspan
   x="32.833302"
   y="0"
   id="tspan4548">e</tspan>
</text>
    <rect
       x="458.5"
       y="156.5"
       width="45"
       height="14"
       stroke-miterlimit="8"
       id="rect4552"
       style="fill:#ffffff;stroke:#ffffff;stroke-width:1.33333004;stroke-miterlimit:8" />
    <text
       font-weight="400"
       font-size="14"
       transform="translate(459.435,168)"
       id="text4556"
       style="font-weight:400;font-size:14px;font-family:Arial, Arial_MSFontService, sans-serif">Refin<tspan
   x="32.833302"
   y="0"
   id="tspan4554">e</tspan>
</text>
    <rect
       x="296.5"
       y="277.5"
       width="45"
       height="15"
       stroke-miterlimit="8"
       id="rect4558"
       style="fill:#ffffff;stroke:#ffffff;stroke-width:1.33333004;stroke-miterlimit:8" />
    <text
       font-weight="400"
       font-size="14"
       transform="translate(297.954,289)"
       id="text4562"
       style="font-weight:400;font-size:14px;font-family:Arial, Arial_MSFontService, sans-serif">Refin<tspan
   x="32.833302"
   y="0"
   id="tspan4560">e</tspan>
</text>
    <rect
       x="416.5"
       y="202.5"
       width="45"
       height="14"
       stroke-miterlimit="8"
       id="rect4564"
       style="fill:#ffffff;stroke:#ffffff;stroke-width:1.33333004;stroke-miterlimit:8" />
    <text
       font-weight="400"
       font-size="14"
       transform="translate(418.087,213)"
       id="text4568"
       style="font-weight:400;font-size:14px;font-family:Arial, Arial_MSFontService, sans-serif">Refin<tspan
   x="32.833302"
   y="0"
   id="tspan4566">e</tspan>
</text>
    <path
       d="m 196.5,97 c 0,-16.2924 13.432,-29.4999 30,-29.4999 16.569,0 30,13.2075 30,29.4999 0,16.292 -13.431,29.5 -30,29.5 -16.568,0 -30,-13.208 -30,-29.5 z"
       stroke-miterlimit="8"
       id="path4570"
       inkscape:connector-curvature="0"
       style="fill:#2b2a7f;fill-rule:evenodd;stroke:#2b2a7f;stroke-width:1.33333004;stroke-miterlimit:8" />
    <text
       font-weight="400"
       font-size="14"
       transform="translate(211.231,102)"
       id="text4572"
       style="font-weight:400;font-size:14px;font-family:Arial, Arial_MSFontService, sans-serif;fill:#ffffff">Start</text>
    <rect
       x="394.5"
       y="91.500099"
       width="10"
       height="14"
       stroke-miterlimit="8"
       id="rect4574"
       style="fill:#ffffff;stroke:#ffffff;stroke-width:1.33333004;stroke-miterlimit:8" />
    <path
       d="m 256,94 139.701,1e-4 v 4 L 256,98 Z m 137.7,-3.9999 11.06442,6 L 393.7,102 Z"
       id="path4576"
       inkscape:connector-curvature="0"
       style="fill:#2b2a7f"
       sodipodi:nodetypes="ccccccccc" />
    <rect
       style="fill:#2b2a7f;fill-opacity:1;stroke:none;stroke-width:0.1;stroke-miterlimit:4;stroke-dasharray:none;stroke-opacity:1"
       id="rect4614"
       width="2.083797"
       height="16.032478"
       x="404.8493"
       y="90.551926" />
    <rect
       style="fill:#ffffff;fill-opacity:1;stroke:none;stroke-width:0.1;stroke-miterlimit:4;stroke-dasharray:none;stroke-opacity:1"
       id="rect4616"
       width="16.755428"
       height="12.247623"
       x="339.12991"
       y="247.16628" />
    <path
       d="m 405.75088,314.21139 -5.684,-0.383 -5.799,-1.107 -5.712,-1.818 -5.499,-2.393 -5.297,-2.972 -5.085,-3.54 -4.819,-3.984 -4.499,-4.434 -4.107,-4.813 -3.722,-5.135 -3.277,-5.461 -2.763,-5.655 -2.254,-5.86 -1.694,-6.124 -0.238,-2.157 3.976,-0.438 0.22,1.997 -0.06,-0.314 1.625,5.875 -0.061,-0.184 2.188,5.687 -0.07,-0.16 2.687,5.5 -0.082,-0.151 3.188,5.313 -0.096,-0.145 3.625,5 -0.098,-0.125 4,4.688 -0.117,-0.126 4.375,4.312 -0.13,-0.117 4.688,3.875 -0.132,-0.1 4.938,3.438 -0.165,-0.103 5.125,2.875 -0.18,-0.09 5.313,2.313 -0.192,-0.072 5.5,1.75 -0.231,-0.059 5.562,1.063 -0.241,-0.031 5.563,0.375 z m -64.206,-53.411 4.653,-12.584 7.275,11.273 z"
       id="path4532"
       inkscape:connector-curvature="0"
       style="fill:#2b2a7f" />
  </g>
</svg>
